# xmcd
#
# Track frame offsets:
#	150
#	4717
#	20902
#	39000
#	56650
#	77535
#	93745
#
# Disc length: 1318 seconds
#
# Revision: 0
# Processed by: cddbd v1.5.1PL2 Copyright (c) Steve Scherf et al.
# Submitted via: dBpowerAMP V4.0
#
DISCID=4a052407
DTITLE=The Assassinz - Missing III
DYEAR=2000
DGENRE=Gangsta
TTITLE0=Intro
TTITLE1=Animosity
TTITLE2=Missing III
TTITLE3=Murda Murda
TTITLE4=Deranged and Crazy featuring Nate Frogg of 1-6 Thugz
TTITLE5=Mind Filled with Darkness featuring Low Key of Dramatik Measurez
TTITLE6=Outro
EXTD=
EXTT0=
EXTT1=
EXTT2=
EXTT3=
EXTT4=
EXTT5=
EXTT6=
PLAYORDER=
